<svg width="58" height="58" viewBox="0 0 58 58" fill="none" xmlns="http://www.w3.org/2000/svg">
<rect x="0.981934" y="0.960999" width="56.0977" height="56.0977" rx="28.0488" fill="#C1BBEB"/>
<path d="M38.8478 17.7903H19.2137C18.0978 17.7903 17.0277 18.2336 16.2386 19.0226C15.4496 19.8116 15.0063 20.8818 15.0063 21.9976V36.022C15.0063 37.1379 15.4496 38.208 16.2386 38.997C17.0277 39.7861 18.0978 40.2293 19.2137 40.2293H38.8478C39.9637 40.2293 41.0338 39.7861 41.8229 38.997C42.6119 38.208 43.0552 37.1379 43.0552 36.022V21.9976C43.0552 20.8818 42.6119 19.8116 41.8229 19.0226C41.0338 18.2336 39.9637 17.7903 38.8478 17.7903ZM38.0443 20.5952L29.8722 27.3269C29.6387 27.5046 29.355 27.604 29.0617 27.6111C28.7683 27.6181 28.4802 27.5324 28.2384 27.3662L20.0173 20.5952H38.0443ZM38.8478 37.4245H19.2137C18.8417 37.4245 18.485 37.2767 18.222 37.0137C17.959 36.7507 17.8112 36.394 17.8112 36.022V22.4183L26.5064 29.5708C27.2299 30.1126 28.11 30.4045 29.0139 30.4024C29.9494 30.401 30.8591 30.0953 31.6056 29.5315L40.2503 22.4183V36.022C40.2503 36.394 40.1025 36.7507 39.8395 37.0137C39.5765 37.2767 39.2198 37.4245 38.8478 37.4245Z" fill="white"/>
</svg>
