<svg width="18" height="19" viewBox="0 0 18 19" fill="none" xmlns="http://www.w3.org/2000/svg">
<path fill-rule="evenodd" clip-rule="evenodd" d="M5.49774 1.53467H12.502C15.0527 1.53467 16.4927 3.01457 16.5002 5.62378V12.7893C16.5002 15.3977 15.0527 16.8784 12.502 16.8784H5.49774C2.94699 16.8784 1.50024 15.3977 1.50024 12.7893V5.62378C1.50024 3.01457 2.94699 1.53467 5.49774 1.53467ZM9.03704 13.7023C9.36029 13.7023 9.62954 13.4568 9.65954 13.1269V5.30923C9.68954 5.0714 9.57779 4.83281 9.37529 4.70315C9.16454 4.57273 8.90954 4.57273 8.70779 4.70315C8.50454 4.83281 8.39279 5.0714 8.41454 5.30923V13.1269C8.45279 13.4568 8.72204 13.7023 9.03704 13.7023ZM12.4878 13.7023C12.8028 13.7023 13.072 13.4568 13.1103 13.1269V10.6105C13.132 10.3642 13.0203 10.1348 12.817 10.0044C12.6153 9.874 12.3603 9.874 12.1503 10.0044C11.947 10.1348 11.8353 10.3642 11.8653 10.6105V13.1269C11.8953 13.4568 12.1645 13.7023 12.4878 13.7023ZM6.16452 13.1269C6.13452 13.4568 5.86527 13.7023 5.54202 13.7023C5.21952 13.7023 4.94952 13.4568 4.92027 13.1269V7.8256C4.89777 7.58701 5.00952 7.34995 5.21277 7.21953C5.41452 7.0891 5.67027 7.0891 5.87277 7.21953C6.07452 7.34995 6.18777 7.58701 6.16452 7.8256V13.1269Z" fill="#707FDD"/>
</svg>
