<svg width="18" height="19" viewBox="0 0 18 19" fill="none" xmlns="http://www.w3.org/2000/svg">
<path fill-rule="evenodd" clip-rule="evenodd" d="M15.3015 10.4185C15.5698 10.5643 15.7767 10.7944 15.9224 11.0246C16.2059 11.5003 16.183 12.0833 15.907 12.5973L15.3705 13.518C15.0869 14.009 14.558 14.3158 14.0138 14.3158C13.7456 14.3158 13.4467 14.2391 13.2014 14.0857C13.0021 13.9553 12.7722 13.9092 12.5269 13.9092C11.7681 13.9092 11.1319 14.546 11.1089 15.3055C11.1089 16.1878 10.4038 16.8782 9.52235 16.8782H8.47995C7.59085 16.8782 6.8857 16.1878 6.8857 15.3055C6.87037 14.546 6.2342 13.9092 5.47539 13.9092C5.22246 13.9092 4.99252 13.9553 4.8009 14.0857C4.55563 14.2391 4.24905 14.3158 3.98845 14.3158C3.43659 14.3158 2.90773 14.009 2.62413 13.518L2.09527 12.5973C1.81168 12.0987 1.79635 11.5003 2.07994 11.0246C2.20258 10.7944 2.43252 10.5643 2.69312 10.4185C2.90773 10.3111 3.04569 10.1347 3.17599 9.92752C3.55922 9.26774 3.32928 8.40081 2.67779 8.00955C1.91898 7.57225 1.67371 6.59792 2.1106 5.83841L2.62413 4.93313C3.06869 4.17361 4.01911 3.90509 4.78557 4.35006C5.4524 4.71831 6.31851 4.47281 6.70941 3.8207C6.83204 3.60589 6.90102 3.37574 6.8857 3.14558C6.87037 2.84638 6.95468 2.56252 7.10031 2.33236C7.3839 1.8567 7.89743 1.54983 8.45695 1.53448H9.53767C10.1049 1.53448 10.6184 1.8567 10.902 2.33236C11.04 2.56252 11.1319 2.84638 11.1089 3.14558C11.0936 3.37574 11.1626 3.60589 11.2852 3.8207C11.6761 4.47281 12.5422 4.71831 13.2167 4.35006C13.9755 3.90509 14.9336 4.17361 15.3705 4.93313L15.884 5.83841C16.3286 6.59792 16.0833 7.57225 15.3168 8.00955C14.6653 8.40081 14.4354 9.26774 14.8263 9.92752C14.9489 10.1347 15.0869 10.3111 15.3015 10.4185ZM6.83196 9.21404C6.83196 10.4185 7.80538 11.3775 9.00873 11.3775C10.2121 11.3775 11.1625 10.4185 11.1625 9.21404C11.1625 8.00955 10.2121 7.04289 9.00873 7.04289C7.80538 7.04289 6.83196 8.00955 6.83196 9.21404Z" fill="#A6ABC8"/>
</svg>
