<svg width="18" height="19" viewBox="0 0 18 19" fill="none" xmlns="http://www.w3.org/2000/svg">
<path fill-rule="evenodd" clip-rule="evenodd" d="M5.8575 1.53436H12.1432C14.46 1.53436 15.75 2.89996 15.75 5.23988V13.1649C15.75 15.5432 14.46 16.8781 12.1432 16.8781H5.8575C3.5775 16.8781 2.25 15.5432 2.25 13.1649V5.23988C2.25 2.89996 3.5775 1.53436 5.8575 1.53436ZM6.06011 5.10946V5.10179H8.30185C8.6251 5.10179 8.8876 5.3703 8.8876 5.69943C8.8876 6.03776 8.6251 6.30627 8.30185 6.30627H6.06011C5.73686 6.30627 5.47511 6.03776 5.47511 5.70787C5.47511 5.37798 5.73686 5.10946 6.06011 5.10946ZM6.06011 9.77396H11.9401C12.2626 9.77396 12.5251 9.50544 12.5251 9.17555C12.5251 8.84566 12.2626 8.57638 11.9401 8.57638H6.06011C5.73686 8.57638 5.47511 8.84566 5.47511 9.17555C5.47511 9.50544 5.73686 9.77396 6.06011 9.77396ZM6.06002 13.28H11.94C12.2393 13.2493 12.465 12.9877 12.465 12.6816C12.465 12.3671 12.2393 12.1062 11.94 12.0755H6.06002C5.83502 12.0525 5.61752 12.1599 5.49752 12.3594C5.37752 12.5512 5.37752 12.8043 5.49752 13.0038C5.61752 13.1956 5.83502 13.3107 6.06002 13.28Z" fill="#A6ABC8"/>
</svg>
