<svg width="18" height="18" viewBox="0 0 18 18" fill="none" xmlns="http://www.w3.org/2000/svg">
<path d="M5.32797 10.3227C6.59697 10.3227 7.61396 11.3496 7.61396 12.6276V15.6957C7.61396 16.9646 6.59697 17.9996 5.32797 17.9996H2.28599C1.02599 17.9996 0 16.9646 0 15.6957V12.6276C0 11.3496 1.02599 10.3227 2.28599 10.3227H5.32797ZM15.714 10.3227C16.974 10.3227 18 11.3496 18 12.6276V15.6957C18 16.9646 16.974 17.9996 15.714 17.9996H12.672C11.403 17.9996 10.386 16.9646 10.386 15.6957V12.6276C10.386 11.3496 11.403 10.3227 12.672 10.3227H15.714ZM5.32797 0C6.59697 0 7.61396 1.03499 7.61396 2.30489V5.37297C7.61396 6.65097 6.59697 7.67696 5.32797 7.67696H2.28599C1.02599 7.67696 0 6.65097 0 5.37297V2.30489C0 1.03499 1.02599 0 2.28599 0H5.32797ZM15.714 0C16.974 0 18 1.03499 18 2.30489V5.37297C18 6.65097 16.974 7.67696 15.714 7.67696H12.672C11.403 7.67696 10.386 6.65097 10.386 5.37297V2.30489C10.386 1.03499 11.403 0 12.672 0H15.714Z" fill="#707FDD"/>
</svg>
