<svg width="74" height="70" viewBox="0 0 74 70" fill="none" xmlns="http://www.w3.org/2000/svg">
<g style="mix-blend-mode:overlay">
<path d="M0.395078 54.2574L0.776709 55.8204L1.11577 57.0191L1.78249 58.434L2.45445 59.8119L3.53316 61.2476L4.52707 62.3506L6.39803 63.7857L8.07874 65.0994L10.0871 66.6293L11.9155 67.6999L13.1783 68.2376L15.2125 69.0545L17.8645 69.7705L19.3277 69.9594L21.208 70L23.4738 69.9822L25.1428 69.9174L27.1284 69.6146L29.4784 69.1372L32.0712 68.5434L34.5371 67.7808L37.2457 66.7696L40.9308 64.9918L43.8133 63.4206L46.5637 61.8496L48.9813 60.2313L51.6838 58.2008L54.3755 55.9802L56.2596 54.2673L58.1436 52.4223L60.0591 50.3555L61.8215 48.4367L64.0585 45.5669L65.926 43.0406L67.7931 39.9862L69.333 37.2436L70.5825 34.6862L71.4783 32.2294L72.6635 28.5312L73.2104 25.742L73.53 22.6942L73.5224 20.0903L73.4206 18.4161L73.1763 16.816L72.8531 15.6384L72.5512 14.7091L72.2284 13.9277L71.5194 12.5445L70.2763 10.2745L69.2076 8.23664L68.5094 7.04358L68.0335 6.41018L67.1293 5.20673L66.1619 4.18292L64.9462 3.18044L63.3608 2.12547L60.5182 0.89201L57.9718 0.228713L55.9646 0.0191746L53.704 2.04039e-07L51.697 0.054549L49.9436 0.182821L48.2641 0.321595L46.2364 0.788134L44.5783 1.30717L41.03 2.3877L37.239 3.84872L33.7545 5.54187L30.1858 7.56256L26.839 9.61475L23.7143 11.9625L21.3496 13.7392L18.6158 16.2557L15.8506 18.994L12.9167 22.1233L11.0804 24.1636L8.68537 27.4826L6.24857 31.3614L3.66455 36.0116L2.58904 38.273L1.72511 40.9041L0.91436 43.9576L0.272746 47.1483L-1.50368e-05 49.3352L0.118671 52.2189L0.395078 54.2574Z" fill="#FC2222"/>
</g>
</svg>
