<svg width="557" height="534" viewBox="0 0 557 534" fill="none" xmlns="http://www.w3.org/2000/svg">
<g style="mix-blend-mode:hard-light">
<path d="M554.47 369.646C559.415 338.674 553.098 307.171 553.098 307.171C553.098 307.171 552.296 287.713 543.624 259.514C534.953 231.316 522.526 199.668 498.411 165.689C474.295 131.709 448.521 106.489 433.07 92.6323C417.578 78.7065 385.245 54.2463 354.394 38.4173C323.542 22.5884 303.17 15.6719 276.132 8.21448C249.082 0.707541 207.247 0.286642 207.247 0.286642C207.247 0.286642 166.135 -2.13932 136.795 7.12399C107.455 16.3873 96.8005 24.0597 82.679 33.3096C68.5574 42.5594 44.9931 68.5365 44.9931 68.5365C44.9931 68.5365 23.8024 95.2576 15.7571 113.128C7.71193 130.999 3.49017 150.875 3.49017 150.875C3.49017 150.875 -1.60288 176.867 0.515792 216.11C2.63448 255.353 13.8295 287.068 13.8295 287.068C25.9627 330.34 56.2698 372.758 56.2698 372.758C56.2698 372.758 87.9621 418.946 135.77 456.556C183.578 494.167 203.204 499.717 226.229 510.146C249.254 520.576 262.626 523 262.626 523C306.21 535.239 339.693 533.962 339.693 533.962C339.693 533.962 391.365 535.282 427.819 521.577C464.303 507.891 458.162 507.726 473.448 499.386C488.752 491.016 515.602 458.8 528.228 439.338C540.854 419.875 549.506 400.649 554.47 369.646ZM426.489 371.61C418.244 379.837 410.021 389.565 392.826 395.162C381.773 398.715 367.306 399.886 350.812 398.833C344.855 398.446 338.981 397.728 333.159 396.661C260.414 383.646 200.522 323.272 200.522 323.272C200.522 323.272 175.012 299.24 156.178 262.967C137.427 226.832 121.561 183.015 140.945 150.047C140.945 150.047 152.545 126.449 172.322 118.797C172.322 118.797 183.979 113.758 215.493 108.893C226.745 107.166 263.922 107.897 309.178 131.141C316.512 134.91 317.873 134.841 331.602 143.652C346.228 152.992 347.337 154.121 355.626 161.132C379.603 181.428 397.358 201.551 410.376 220.574C433.03 253.709 441.193 282.307 442.536 304.19C443.057 313.061 442.437 320.654 442.214 325.951C441.731 337.072 440.905 341.645 440.905 341.645C440.905 341.645 438.833 359.276 426.489 371.61Z" fill="#D18888"/>
</g>
</svg>
