<svg width="18" height="19" viewBox="0 0 18 19" fill="none" xmlns="http://www.w3.org/2000/svg">
<path fill-rule="evenodd" clip-rule="evenodd" d="M5.75226 1.53375H12.2548C14.7973 1.53375 16.4998 3.35966 16.4998 6.0755V12.3442C16.4998 15.0524 14.7973 16.8775 12.2548 16.8775H5.75226C3.20976 16.8775 1.49976 15.0524 1.49976 12.3442V6.0755C1.49976 3.35966 3.20976 1.53375 5.75226 1.53375ZM8.99232 6.95088C8.63982 6.95088 8.34732 6.65091 8.34732 6.28342C8.34732 5.9075 8.63982 5.6083 9.00732 5.6083C9.36732 5.6083 9.65982 5.9075 9.65982 6.28342C9.65982 6.65091 9.36732 6.95088 8.99232 6.95088ZM9.65219 12.1064C9.65219 12.4746 9.35969 12.7738 8.99219 12.7738C8.63219 12.7738 8.33969 12.4746 8.33969 12.1064V8.71538C8.33969 8.34637 8.63219 8.04026 8.99219 8.04026C9.35969 8.04026 9.65219 8.34637 9.65219 8.71538V12.1064Z" fill="#A6ABC8"/>
</svg>
